<svg id="Компонент_110_1" data-name="Компонент 110 – 1" xmlns="http://www.w3.org/2000/svg" width="40" height="40" viewBox="0 0 40 40">
  <g id="Instagram" transform="translate(19743 3065)">
    <rect id="Прямоугольник_1260" data-name="Прямоугольник 1260" width="40" height="40" rx="20" transform="translate(-19743 -3065)" fill="#fff"/>
    <path id="instagram-61" d="M65.278,61.831a3.335,3.335,0,1,0,3.335,3.335A3.342,3.342,0,0,0,65.278,61.831Zm10,3.335c0-1.381.013-2.749-.065-4.128a5.533,5.533,0,0,0-5.806-5.806c-1.381-.078-2.749-.065-4.128-.065s-2.749-.013-4.128.065a5.533,5.533,0,0,0-5.806,5.806c-.078,1.381-.065,2.749-.065,4.128s-.013,2.749.065,4.128A5.533,5.533,0,0,0,61.152,75.1c1.381.078,2.749.065,4.128.065s2.749.013,4.128-.065a5.533,5.533,0,0,0,5.806-5.806C75.294,67.915,75.279,66.547,75.279,65.166Zm-10,5.131a5.131,5.131,0,1,1,5.131-5.131A5.124,5.124,0,0,1,65.278,70.3Zm5.341-9.274a1.2,1.2,0,1,1,.848-.351A1.2,1.2,0,0,1,70.619,61.023Z" transform="translate(-19788.281 -3110.166)" stroke="rgba(0,0,0,0)" stroke-width="1"/>
  </g>
</svg>
