<svg id="Компонент_108_1" data-name="Компонент 108 – 1" xmlns="http://www.w3.org/2000/svg"
  width="40.039" height="40.039" viewBox="0 0 40.039 40.039">
  <g id="Twitter" transform="translate(0 0.03)">
    <path id="Контур_974" data-name="Контур 974"
      d="M40.039,20.019A20.019,20.019,0,1,1,20.019,0,20.019,20.019,0,0,1,40.039,20.019"
      transform="translate(0 -0.03)" fill="#fff" />
    <path id="Контур_975" data-name="Контур 975"
      d="M96.9,133.618a13.638,13.638,0,0,0,13.731-13.731q0-.313-.014-.624a9.819,9.819,0,0,0,2.407-2.5,9.633,9.633,0,0,1-2.772.76,4.843,4.843,0,0,0,2.121-2.67,9.671,9.671,0,0,1-3.064,1.171,4.831,4.831,0,0,0-8.224,4.4,13.7,13.7,0,0,1-9.948-5.042,4.83,4.83,0,0,0,1.494,6.442,4.789,4.789,0,0,1-2.186-.6v.061a4.829,4.829,0,0,0,3.872,4.732,4.817,4.817,0,0,1-2.179.083,4.832,4.832,0,0,0,4.5,3.352,9.683,9.683,0,0,1-5.991,2.064,9.824,9.824,0,0,1-1.151-.067,13.662,13.662,0,0,0,7.4,2.168"
      transform="translate(-81 -104.07)" />
  </g>
</svg>