<svg id="Компонент_109_1" data-name="Компонент 109 – 1" xmlns="http://www.w3.org/2000/svg" width="40" height="40" viewBox="0 0 40 40">
  <g id="YouTube" transform="translate(-6 -1)">
    <path id="Контур_980" data-name="Контур 980" d="M40,20A20,20,0,1,1,20,0,20,20,0,0,1,40,20" transform="translate(6 1)" fill="#fff"/>
    <path id="Контур_981" data-name="Контур 981" d="M29.932,36.464a2.814,2.814,0,0,0-1.98-1.993C26.2,34,19.2,34,19.2,34s-7,0-8.752.471a2.814,2.814,0,0,0-1.98,1.993,31.688,31.688,0,0,0,0,10.853,2.814,2.814,0,0,0,1.98,1.993c1.747.471,8.752.471,8.752.471s7,0,8.752-.471a2.814,2.814,0,0,0,1.98-1.993,31.687,31.687,0,0,0,0-10.853ZM16.909,45.222V38.56l5.855,3.331Z" transform="translate(6.8 -20.891)"/>
  </g>
</svg>
