<svg id="Компонент_107_1" data-name="Компонент 107 – 1" xmlns="http://www.w3.org/2000/svg"
  width="40" height="40" viewBox="0 0 40 40">
  <g id="Facebook">
    <path id="Контур_987" data-name="Контур 987"
      d="M40,20A20,20,0,1,0,16.875,39.757V25.781H11.8V20h5.078V15.594c0-5.012,2.986-7.781,7.554-7.781a30.768,30.768,0,0,1,4.477.391v4.922H26.384c-2.484,0-3.259,1.542-3.259,3.125V20h5.547l-.887,5.781h-4.66V39.757A20.005,20.005,0,0,0,40,20Z"
      fill="#fff" />
    <path id="Контур_988" data-name="Контур 988"
      d="M317.988,217.969l.887-5.781h-5.547v-3.75c0-1.582.775-3.125,3.259-3.125h2.522v-4.922a30.754,30.754,0,0,0-4.477-.391c-4.568,0-7.554,2.769-7.554,7.781v4.406H302v5.781h5.078v13.976a20.218,20.218,0,0,0,6.25,0V217.969Z"
      transform="translate(-290.203 -192.188)" />
  </g>
</svg>